G04 ================== begin FILE IDENTIFICATION RECORD ==================*
G04 Layout Name:  DESIGN_TLU.brd*
G04 Film Name:    SSTP*
G04 File Format:  Gerber RS274X*
G04 File Origin:  Cadence Allegro 24.1-P001*
G04 Origin Date:  Mon Dec 23 11:17:50 2024*
G04 *
G04 Layer:  REF DES/SILKSCREEN_TOP*
G04 Layer:  PACKAGE GEOMETRY/SILKSCREEN_TOP*
G04 Layer:  BOARD GEOMETRY/SILKSCREEN_TOP*
G04 *
G04 Offset:    (0.00 0.00)*
G04 Mirror:    No*
G04 Mode:      Positive*
G04 Rotation:  0*
G04 FullContactRelief:  No*
G04 UndefLineWidth:     6.00*
G04 ================== end FILE IDENTIFICATION RECORD ====================*
%FSLAX25Y25*MOIN*%
%IR0*IPPOS*OFA0.00000B0.00000*MIA0B0*SFA1.00000B1.00000*%
%ADD10C,.045*%
%ADD11C,.006*%
%ADD12C,.008*%
G75*
%LPD*%
G75*
G54D10*
G01X106000Y99000D02*
X104250Y100750D01*
G01X124000Y66500D02*
X125750Y68250D01*
G54D11*
G01X23247Y67500D02*
Y75000D01*
X25113D01*
X25860Y74625D01*
X26420Y74125D01*
X26887Y73375D01*
X27260Y72500D01*
X27353Y71250D01*
X27260Y70000D01*
X26887Y69125D01*
X26420Y68375D01*
X25860Y67875D01*
X25113Y67500D01*
X23247D01*
G01X32800D02*
Y75000D01*
X31680Y73500D01*
G01Y67500D02*
X33920D01*
G01X43247D02*
Y75000D01*
X45113D01*
X45860Y74625D01*
X46420Y74125D01*
X46887Y73375D01*
X47260Y72500D01*
X47353Y71250D01*
X47260Y70000D01*
X46887Y69125D01*
X46420Y68375D01*
X45860Y67875D01*
X45113Y67500D01*
X43247D01*
G01X51027Y73750D02*
X51587Y74500D01*
X52240Y74875D01*
X52987Y75000D01*
X53920Y74750D01*
X54573Y74125D01*
X54760Y73375D01*
X54667Y72625D01*
X54293Y72000D01*
X52427Y70750D01*
X51587Y69875D01*
X51027Y68625D01*
X50840Y67500D01*
X54760D01*
G01X84067Y69000D02*
Y61500D01*
X81733D01*
X80987Y61875D01*
X80520Y62375D01*
X80333Y63375D01*
X80520Y64375D01*
X81080Y65000D01*
X81733Y65375D01*
X84067D01*
G01X81733D02*
X80333Y69000D01*
G01X73580D02*
Y61500D01*
X77033Y66875D01*
X72367D01*
G01X81567Y100000D02*
Y92500D01*
X79233D01*
X78487Y92875D01*
X78020Y93375D01*
X77833Y94375D01*
X78020Y95375D01*
X78580Y96000D01*
X79233Y96375D01*
X81567D01*
G01X79233D02*
X77833Y100000D01*
G01X73973Y93750D02*
X73413Y93000D01*
X72760Y92625D01*
X72013Y92500D01*
X71080Y92750D01*
X70427Y93375D01*
X70240Y94125D01*
X70333Y94875D01*
X70707Y95500D01*
X72573Y96750D01*
X73413Y97625D01*
X73973Y98875D01*
X74160Y100000D01*
X70240D01*
G01X50000Y170000D02*
X60000D01*
Y150000D01*
X50000D01*
Y170000D01*
G01X57683Y173120D02*
X57875Y172810D01*
X58105Y172603D01*
X58373Y172500D01*
X58680Y172603D01*
X58910Y172810D01*
X59140Y173120D01*
X59217Y173533D01*
Y175600D01*
G01X61550Y172500D02*
Y175600D01*
X61090Y174980D01*
G01Y172500D02*
X62010D01*
G01X105300Y37500D02*
X104553Y37625D01*
X103900Y38125D01*
X103340Y38875D01*
X102967Y39750D01*
X102780Y40750D01*
Y41750D01*
X102967Y42750D01*
X103340Y43625D01*
X103900Y44375D01*
X104553Y44875D01*
X105300Y45000D01*
X106047Y44875D01*
X106700Y44375D01*
X107260Y43625D01*
X107633Y42750D01*
X107820Y41750D01*
Y40750D01*
X107633Y39750D01*
X107260Y38875D01*
X106700Y38125D01*
X106047Y37625D01*
X105300Y37500D01*
G01X106047Y39500D02*
X107167Y37500D01*
G01X111027Y43750D02*
X111587Y44500D01*
X112240Y44875D01*
X112987Y45000D01*
X113920Y44750D01*
X114573Y44125D01*
X114760Y43375D01*
X114667Y42625D01*
X114293Y42000D01*
X112427Y40750D01*
X111587Y39875D01*
X111027Y38625D01*
X110840Y37500D01*
X114760D01*
G01X105300Y105000D02*
X104553Y105125D01*
X103900Y105625D01*
X103340Y106375D01*
X102967Y107250D01*
X102780Y108250D01*
Y109250D01*
X102967Y110250D01*
X103340Y111125D01*
X103900Y111875D01*
X104553Y112375D01*
X105300Y112500D01*
X106047Y112375D01*
X106700Y111875D01*
X107260Y111125D01*
X107633Y110250D01*
X107820Y109250D01*
Y108250D01*
X107633Y107250D01*
X107260Y106375D01*
X106700Y105625D01*
X106047Y105125D01*
X105300Y105000D01*
G01X106047Y107000D02*
X107167Y105000D01*
G01X112800D02*
Y112500D01*
X111680Y111000D01*
G01Y105000D02*
X113920D01*
G01X85933Y147500D02*
Y155000D01*
X88267D01*
X89013Y154625D01*
X89480Y154125D01*
X89667Y153125D01*
X89480Y152125D01*
X88920Y151500D01*
X88267Y151125D01*
X85933D01*
G01X88267D02*
X89667Y147500D01*
G01X93247Y149000D02*
X93807Y148125D01*
X94553Y147625D01*
X95393Y147500D01*
X96140Y147625D01*
X96887Y148250D01*
X97353Y149000D01*
X97447Y149750D01*
X97260Y150625D01*
X96607Y151250D01*
X95953Y151500D01*
X95113D01*
G01X95953D02*
X96513Y151875D01*
X96980Y152500D01*
X97167Y153250D01*
X96980Y154000D01*
X96513Y154625D01*
X95673Y155000D01*
X94833Y154875D01*
X93993Y154375D01*
G01X135933Y147500D02*
Y155000D01*
X138267D01*
X139013Y154625D01*
X139480Y154125D01*
X139667Y153125D01*
X139480Y152125D01*
X138920Y151500D01*
X138267Y151125D01*
X135933D01*
G01X138267D02*
X139667Y147500D01*
G01X145300D02*
Y155000D01*
X144180Y153500D01*
G01Y147500D02*
X146420D01*
G01X110933D02*
Y155000D01*
X113267D01*
X114013Y154625D01*
X114480Y154125D01*
X114667Y153125D01*
X114480Y152125D01*
X113920Y151500D01*
X113267Y151125D01*
X110933D01*
G01X113267D02*
X114667Y147500D01*
G01X118527Y150625D02*
X119180Y151500D01*
X119740Y152000D01*
X120487Y152250D01*
X121140Y152000D01*
X121607Y151500D01*
X121980Y150750D01*
X122073Y149875D01*
X121980Y149125D01*
X121607Y148375D01*
X121047Y147750D01*
X120393Y147500D01*
X119647Y147750D01*
X118993Y148500D01*
X118620Y149625D01*
X118527Y150875D01*
X118713Y152500D01*
X118993Y153375D01*
X119460Y154250D01*
X120113Y154875D01*
X120767Y155000D01*
X121420Y154750D01*
X121887Y154125D01*
G01X141500Y126500D02*
X147500D01*
X150000Y123750D01*
X155000D01*
X157500Y126500D01*
X163500D01*
Y39000D01*
X141500D01*
Y126500D01*
G01X143557Y122500D02*
Y118917D01*
X143810Y118167D01*
X144317Y117667D01*
X144950Y117500D01*
X145583Y117667D01*
X146090Y118167D01*
X146343Y118917D01*
Y122500D01*
G01X148847Y121667D02*
X149227Y122167D01*
X149670Y122417D01*
X150177Y122500D01*
X150810Y122333D01*
X151253Y121917D01*
X151380Y121417D01*
X151317Y120917D01*
X151063Y120500D01*
X149797Y119667D01*
X149227Y119083D01*
X148847Y118250D01*
X148720Y117500D01*
X151380D01*
G01X193007Y60000D02*
Y56417D01*
X193260Y55667D01*
X193767Y55167D01*
X194400Y55000D01*
X195033Y55167D01*
X195540Y55667D01*
X195793Y56417D01*
Y60000D01*
G01X199500Y55000D02*
Y60000D01*
X198740Y59000D01*
G01Y55000D02*
X200260D01*
G01X254600Y53200D02*
Y102800D01*
X186200D01*
Y53200D01*
X254600D01*
G01X213433Y140000D02*
Y147500D01*
X215767D01*
X216513Y147125D01*
X216980Y146625D01*
X217167Y145625D01*
X216980Y144625D01*
X216420Y144000D01*
X215767Y143625D01*
X213433D01*
G01X215767D02*
X217167Y140000D01*
G01X220747Y141125D02*
X221307Y140500D01*
X221960Y140125D01*
X222800Y140000D01*
X223640Y140250D01*
X224293Y140750D01*
X224760Y141625D01*
X224853Y142625D01*
X224667Y143625D01*
X224200Y144250D01*
X223547Y144750D01*
X222893Y144875D01*
X222240Y144750D01*
X221400Y144250D01*
X221680Y147500D01*
X224200D01*
G01X213433Y120000D02*
Y127500D01*
X215767D01*
X216513Y127125D01*
X216980Y126625D01*
X217167Y125625D01*
X216980Y124625D01*
X216420Y124000D01*
X215767Y123625D01*
X213433D01*
G01X215767D02*
X217167Y120000D01*
G01X222613D02*
X222800Y121625D01*
X223080Y123000D01*
X223453Y124250D01*
X223920Y125625D01*
X224667Y127500D01*
X220933D01*
G01X225000Y175000D02*
X235000D01*
Y155000D01*
X225000D01*
Y175000D01*
G01X205747Y177500D02*
Y185000D01*
X207613D01*
X208360Y184625D01*
X208920Y184125D01*
X209387Y183375D01*
X209760Y182500D01*
X209853Y181250D01*
X209760Y180000D01*
X209387Y179125D01*
X208920Y178375D01*
X208360Y177875D01*
X207613Y177500D01*
X205747D01*
G01X213247Y179000D02*
X213807Y178125D01*
X214553Y177625D01*
X215393Y177500D01*
X216140Y177625D01*
X216887Y178250D01*
X217353Y179000D01*
X217447Y179750D01*
X217260Y180625D01*
X216607Y181250D01*
X215953Y181500D01*
X215113D01*
G01X215953D02*
X216513Y181875D01*
X216980Y182500D01*
X217167Y183250D01*
X216980Y184000D01*
X216513Y184625D01*
X215673Y185000D01*
X214833Y184875D01*
X213993Y184375D01*
G01X230183Y178120D02*
X230375Y177810D01*
X230605Y177603D01*
X230873Y177500D01*
X231180Y177603D01*
X231410Y177810D01*
X231640Y178120D01*
X231717Y178533D01*
Y180600D01*
G01X233322Y180083D02*
X233552Y180393D01*
X233820Y180548D01*
X234127Y180600D01*
X234510Y180497D01*
X234778Y180238D01*
X234855Y179928D01*
X234817Y179618D01*
X234663Y179360D01*
X233897Y178843D01*
X233552Y178482D01*
X233322Y177965D01*
X233245Y177500D01*
X234855D01*
G01X92500Y78500D02*
X70500D01*
G01D02*
Y69500D01*
G01D02*
X92500D01*
G01Y109500D02*
X70500D01*
G01D02*
Y100500D01*
G01D02*
X92500D01*
G01X77500Y147000D02*
Y138000D01*
G01D02*
X99500D01*
G01Y147000D02*
X77500D01*
G01X92500Y69500D02*
Y78500D01*
G01Y100500D02*
Y109500D01*
G01X99500Y138000D02*
Y147000D01*
G01X135500D02*
Y138000D01*
G01D02*
X157500D01*
G01X132500D02*
Y147000D01*
G01X110500D02*
Y138000D01*
G01D02*
X132500D01*
G01X157500Y147000D02*
X135500D01*
G01X132500D02*
X110500D01*
G01X157500Y138000D02*
Y147000D01*
G01X188000D02*
Y138000D01*
G01D02*
X210000D01*
G01Y129500D02*
X188000D01*
G01D02*
Y120500D01*
G01D02*
X210000D01*
G01Y147000D02*
X188000D01*
G01X210000Y138000D02*
Y147000D01*
G01Y120500D02*
Y129500D01*
G54D12*
G01X27500Y88750D02*
Y95000D01*
G01X22500Y100000D02*
X32500D01*
G01Y115000D02*
Y95000D01*
G01D02*
X22500D01*
G01D02*
Y115000D01*
G01X47500Y95000D02*
Y88750D01*
G01X52500Y110000D02*
X42500D01*
G01Y95000D02*
Y115000D01*
G01X52500Y95000D02*
X42500D01*
G01X27500Y115000D02*
Y121250D01*
G01X22500Y115000D02*
X32500D01*
G01X47500Y121250D02*
Y115000D01*
G01X42500D02*
X52500D01*
G01D02*
Y95000D01*
G01X115000Y69000D02*
G02X126500Y57500I0J-11500D01*
G02X115000Y46000I-11500J0D01*
G02X103500Y57500I0J11500D01*
G02X115000Y69000I11500J0D01*
G01X103500Y90000D02*
G02X115000Y101500I11500J0D01*
G02X126500Y90000I0J-11500D01*
G02X115000Y78500I-11500J0D01*
G02X103500Y90000I0J11500D01*
G01X173750Y170000D02*
X180000D01*
G01X200000D02*
X206250D01*
G01X185000Y175000D02*
Y165000D01*
G01X200000D02*
X180000D01*
G01D02*
Y175000D01*
G01X200000D02*
Y165000D01*
G01X180000Y175000D02*
X200000D01*
M02*
