G04 ================== begin FILE IDENTIFICATION RECORD ==================*
G04 Layout Name:  DESIGN_TLU.brd*
G04 Film Name:    TOP*
G04 File Format:  Gerber RS274X*
G04 File Origin:  Cadence Allegro 24.1-P001*
G04 Origin Date:  Mon Dec 23 11:17:50 2024*
G04 *
G04 Layer:  VIA CLASS/TOP*
G04 Layer:  PIN/TOP*
G04 Layer:  ETCH/TOP*
G04 *
G04 Offset:    (0.00 0.00)*
G04 Mirror:    No*
G04 Mode:      Positive*
G04 Rotation:  0*
G04 FullContactRelief:  No*
G04 UndefLineWidth:     6.00*
G04 ================== end FILE IDENTIFICATION RECORD ====================*
%FSLAX25Y25*MOIN*%
%IR0*IPPOS*OFA0.00000B0.00000*MIA0B0*SFA1.00000B1.00000*%
%ADD16C,.04*%
%ADD15C,.024*%
%ADD14C,.06*%
%ADD10C,.025*%
%ADD12C,.055*%
%ADD13R,.06X.06*%
%ADD11R,.055X.055*%
%ADD17C,.012*%
%ADD18C,.044*%
G75*
%LPD*%
G75*
G54D10*
X15000Y15000D03*
Y185000D03*
X265000Y15000D03*
Y185000D03*
G54D11*
X27500Y82500D03*
X47500Y127500D03*
X167500Y170000D03*
G54D12*
X47500Y82500D03*
X27500Y127500D03*
X110000Y57500D03*
Y90000D03*
X115000Y52500D03*
Y62500D03*
Y85000D03*
X120000Y90000D03*
X212500Y170000D03*
G54D13*
X75000Y74000D03*
Y105000D03*
X82000Y142500D03*
X88000Y74000D03*
Y105000D03*
X95000Y142500D03*
X140000D03*
X115000D03*
X128000D03*
X137500Y117500D03*
X153000Y142500D03*
X192500D03*
Y125000D03*
X205500Y142500D03*
Y125000D03*
G54D14*
X55000Y155000D03*
Y165000D03*
X137500Y47500D03*
Y57500D03*
Y67500D03*
Y77500D03*
Y87500D03*
Y97500D03*
Y107500D03*
X167500Y47500D03*
Y77500D03*
Y67500D03*
Y57500D03*
Y107500D03*
Y97500D03*
Y87500D03*
Y117500D03*
X230000Y160000D03*
Y170000D03*
G54D15*
X160000Y62500D03*
Y52500D03*
X180000Y139000D03*
G54D16*
X200000Y47500D03*
Y108500D03*
X230600Y47500D03*
X220400D03*
X210200D03*
Y108500D03*
X220400D03*
X230600D03*
X240800Y47500D03*
Y108500D03*
G54D17*
G01X47500Y82500D02*
Y99500D01*
X82000Y134000D01*
Y142500D01*
G01X47500Y127500D02*
X27500D01*
G01X75000Y105000D02*
Y74000D01*
G01Y105000D02*
Y116000D01*
X95000Y136000D01*
Y142500D01*
G01X55000Y155000D02*
X95000D01*
G01X110000Y57500D02*
X98500D01*
X88000Y68000D01*
Y74000D01*
G01X153000Y142500D02*
Y150000D01*
X148000Y155000D01*
X95000D01*
G01D02*
Y142500D01*
G01X160000Y52500D02*
X115000D01*
G01X120000Y90000D02*
Y137500D01*
X115000Y142500D01*
G01X167500Y57500D02*
X160474D01*
X152000Y65974D01*
Y84000D01*
X143500Y92500D01*
X126350D01*
X123850Y90000D01*
X120000D01*
G01X200000Y108500D02*
X196000Y112500D01*
X152500D01*
X137500Y97500D01*
G01X140000Y142500D02*
Y138400D01*
X160900Y117500D01*
X167500D01*
G01X128000Y142500D02*
X140000D01*
G01X167500Y87500D02*
X160000Y80000D01*
Y62500D01*
G01X167500Y57500D02*
X220600D01*
X230600Y47500D01*
G01X240800Y108500D02*
X229800Y97500D01*
X167500D01*
G01Y117500D02*
Y170000D01*
G01X205500Y132500D02*
X187500D01*
X172500Y117500D01*
X167500D01*
G01X200000Y108500D02*
X210200D01*
G01X180000Y139000D02*
X183500Y142500D01*
X192500D01*
G01X220400Y108500D02*
X213900Y115000D01*
X198400D01*
X192500Y120900D01*
Y125000D01*
G01X210200Y108500D02*
X216700Y102000D01*
X224100D01*
X230600Y108500D01*
G01X205500Y125000D02*
Y132500D01*
G01D02*
Y142500D01*
G54D18*
G01X88000Y105000D02*
X95000D01*
X110000Y90000D01*
M02*
